<svg width="0" height="0" class="hidden">
  <symbol xmlns="http://www.w3.org/2000/svg" viewBox="0 0 512 512" id="account">
    <path d="M68.169 447.023C71.835 449.023 159.075 496 256 496c105.008 0 184.772-47.134 188.116-49.14A8 8 0 0 0 448 440c0-64.593-19.807-123.7-55.771-166.442-25.158-29.9-56.724-50.28-91.539-59.662a104 104 0 1 0-89.38 0c-34.815 9.382-66.381 29.765-91.539 59.662C83.807 316.3 64 375.407 64 440a8 8 0 0 0 4.169 7.023zM168 120a88 88 0 1 1 88 88 88.1 88.1 0 0 1-88-88zm-35.987 163.859C164.5 245.258 208.528 224 256 224s91.5 21.258 123.987 59.859c32.681 38.838 51.056 92.48 51.977 151.474C414.845 444.6 343.708 480 256 480c-81.11 0-157.5-35.609-175.96-44.856.96-58.921 19.327-112.488 51.973-151.285z"></path>
  </symbol>
  <symbol xmlns="http://www.w3.org/2000/svg" viewBox="0 0 512 512" id="account-white">
    <path xmlns="http://www.w3.org/2000/svg" d="M68.169 447.023C71.835 449.023 159.075 496 256 496c105.008 0 184.772-47.134 188.116-49.14A8 8 0 0 0 448 440c0-64.593-19.807-123.7-55.771-166.442-25.158-29.9-56.724-50.28-91.539-59.662a104 104 0 1 0-89.38 0c-34.815 9.382-66.381 29.765-91.539 59.662C83.807 316.3 64 375.407 64 440a8 8 0 0 0 4.169 7.023zM168 120a88 88 0 1 1 88 88 88.1 88.1 0 0 1-88-88zm-35.987 163.859C164.5 245.258 208.528 224 256 224s91.5 21.258 123.987 59.859c32.681 38.838 51.056 92.48 51.977 151.474C414.845 444.6 343.708 480 256 480c-81.11 0-157.5-35.609-175.96-44.856.96-58.921 19.327-112.488 51.973-151.285z" fill="#fff" data-original="#000000"></path>
  </symbol>
  <symbol viewBox="0 0 480 480" xmlns="http://www.w3.org/2000/svg" id="cart">
    <path d="M372.052 480H107.948c-23.46 0-41.906-20.152-39.845-43.516l24.353-276C94.291 139.685 111.42 124 132.301 124H157V83c0-45.767 37.233-83 83-83s83 37.233 83 83v41h24.699a8 8 0 0 1 0 16H323v36a8 8 0 0 1-16 0v-36H202a8 8 0 0 1 0-16h105V83c0-36.944-30.056-67-67-67s-67 30.056-67 67v93a8 8 0 0 1-16 0v-36h-24.699c-12.528 0-22.806 9.411-23.907 21.891l-24.353 276C82.8 451.953 93.848 464 107.948 464h264.104c14.117 0 25.147-12.064 23.907-26.109l-24.353-276a8 8 0 0 1 15.938-1.406l24.353 276c2.062 23.369-16.39 43.515-39.845 43.515zM194 411h-58a8 8 0 0 0 0 16h58a8 8 0 0 0 0-16zm0-40h-58a8 8 0 0 0 0 16h58a8 8 0 0 0 0-16z"></path>
  </symbol>
  <symbol xmlns="http://www.w3.org/2000/svg" viewBox="0 0 480 480" id="cart-white">
    <path xmlns="http://www.w3.org/2000/svg" d="M372.052 480H107.948c-23.46 0-41.906-20.152-39.845-43.516l24.353-276C94.291 139.685 111.42 124 132.301 124H157V83c0-45.767 37.233-83 83-83s83 37.233 83 83v41h24.699a8 8 0 0 1 0 16H323v36a8 8 0 0 1-16 0v-36H202a8 8 0 0 1 0-16h105V83c0-36.944-30.056-67-67-67s-67 30.056-67 67v93a8 8 0 0 1-16 0v-36h-24.699c-12.528 0-22.806 9.411-23.907 21.891l-24.353 276C82.8 451.953 93.848 464 107.948 464h264.104c14.117 0 25.147-12.064 23.907-26.109l-24.353-276a8 8 0 0 1 15.938-1.406l24.353 276c2.062 23.369-16.39 43.515-39.845 43.515zM194 411h-58a8 8 0 0 0 0 16h58a8 8 0 0 0 0-16zm0-40h-58a8 8 0 0 0 0 16h58a8 8 0 0 0 0-16z" fill="#fff" data-original="#000000"></path>
  </symbol>
  <symbol viewBox="0 -28 512.001 512" xmlns="http://www.w3.org/2000/svg" id="heart">
    <path d="M256 455.516a30.022 30.022 0 0 1-19.793-7.438c-20.684-18.086-40.625-35.082-58.219-50.074l-.09-.078c-51.582-43.957-96.125-81.918-127.117-119.313C16.137 236.81 0 197.172 0 153.871c0-42.07 14.426-80.883 40.617-109.293C67.121 15.832 103.488 0 143.031 0c29.555 0 56.621 9.344 80.446 27.77C235.5 37.07 246.398 48.453 256 61.73c9.605-13.277 20.5-24.66 32.527-33.96C312.352 9.344 339.418 0 368.973 0c39.539 0 75.91 15.832 102.414 44.578C497.578 72.988 512 111.801 512 153.871c0 43.3-16.133 82.938-50.777 124.738-30.993 37.399-75.532 75.356-127.106 119.309-17.625 15.016-37.597 32.039-58.328 50.168a30.046 30.046 0 0 1-19.789 7.43zM143.031 29.992c-31.066 0-59.605 12.399-80.367 34.914-21.07 22.856-32.676 54.45-32.676 88.965 0 36.418 13.535 68.988 43.883 105.606 29.332 35.394 72.961 72.574 123.477 115.625l.093.078c17.66 15.05 37.68 32.113 58.516 50.332 20.961-18.254 41.012-35.344 58.707-50.418 50.512-43.051 94.137-80.223 123.469-115.617 30.344-36.618 43.879-69.188 43.879-105.606 0-34.516-11.606-66.11-32.676-88.965-20.758-22.515-49.3-34.914-80.363-34.914-22.758 0-43.653 7.235-62.102 21.5-16.441 12.719-27.894 28.797-34.61 40.047-3.452 5.785-9.53 9.238-16.261 9.238s-12.809-3.453-16.262-9.238c-6.71-11.25-18.164-27.328-34.61-40.047-18.448-14.265-39.343-21.5-62.097-21.5zm0 0"></path>
  </symbol>
  <symbol xmlns="http://www.w3.org/2000/svg" viewBox="0 0 512 512" id="search">
    <path d="M508.875 493.792L353.089 338.005c32.358-35.927 52.245-83.296 52.245-135.339C405.333 90.917 314.417 0 202.667 0S0 90.917 0 202.667s90.917 202.667 202.667 202.667c52.043 0 99.411-19.887 135.339-52.245l155.786 155.786a10.634 10.634 0 0 0 7.542 3.125c2.729 0 5.458-1.042 7.542-3.125 4.166-4.167 4.166-10.917-.001-15.083zM202.667 384c-99.979 0-181.333-81.344-181.333-181.333S102.688 21.333 202.667 21.333 384 102.677 384 202.667 302.646 384 202.667 384z"></path>
  </symbol>
  <symbol xmlns="http://www.w3.org/2000/svg" viewBox="0 0 512.001 512.001" id="shopping-cart">
    <path d="M503.142 79.784c-7.303-8.857-18.128-13.933-29.696-13.933H176.37c-6.085 0-11.023 4.938-11.023 11.023s4.938 11.023 11.023 11.023h297.07c5.032 0 9.541 2.1 12.688 5.914 3.197 3.88 4.475 8.995 3.511 13.972l-44.054 220.282c-1.709 7.871-8.383 13.366-16.232 13.366h-245.03L83.158 36.854C77.69 21.234 62.886 10.74 45.932 10.74h-.017c-14.38.496-28.963.491-32.535.248-3.555-.772-7.397.22-10.152 2.976-4.305 4.305-4.305 11.282 0 15.587 3.412 3.412 4.564 4.564 43.068 3.23 7.22 0 13.674 4.564 15.995 11.188l103.618 311.962a11.025 11.025 0 0 0 10.461 7.545h252.982c18.31 0 33.841-12.638 37.815-30.909l44.109-220.525c2.227-11.529-.732-23.285-8.134-32.258z"></path>
    <path d="M424.392 424.11H223.77c-6.785 0-13.162-4.674-15.46-11.233l-21.495-63.935c-1.94-5.771-8.207-8.885-13.961-6.934-5.771 1.935-8.874 8.19-6.934 13.961l21.539 64.061c5.473 15.625 20.062 26.119 36.31 26.119h200.622c6.085 0 11.023-4.933 11.023-11.018s-4.937-11.021-11.022-11.021z"></path>
    <path d="M231.486 424.104c-21.275 0-38.581 17.312-38.581 38.581s17.306 38.581 38.581 38.581 38.581-17.312 38.581-38.581-17.306-38.581-38.581-38.581zm0 55.116c-9.116 0-16.535-7.419-16.535-16.535s7.419-16.535 16.535-16.535 16.535 7.419 16.535 16.535c0 9.117-7.419 16.535-16.535 16.535zm192.906-55.116c-21.269 0-38.581 17.312-38.581 38.581s17.312 38.581 38.581 38.581c21.269 0 38.581-17.312 38.581-38.581s-17.312-38.581-38.581-38.581zm0 55.116c-9.116 0-16.535-7.419-16.535-16.535s7.419-16.535 16.535-16.535 16.535 7.419 16.535 16.535c0 9.117-7.419 16.535-16.535 16.535z"></path>
  </symbol>
  <symbol viewBox="0 -10 511.987 511" xmlns="http://www.w3.org/2000/svg" id="star">
    <path d="M114.594 491.14c-5.61 0-11.18-1.75-15.934-5.187a27.223 27.223 0 0 1-10.582-28.094l32.938-145.09L9.312 214.81a27.188 27.188 0 0 1-7.976-28.907 27.208 27.208 0 0 1 23.402-18.71l147.797-13.419L230.97 17.027C235.277 6.98 245.089.492 255.992.492s20.715 6.488 25.024 16.512l58.433 136.77 147.774 13.417c10.882.98 20.054 8.344 23.425 18.711 3.372 10.368.254 21.739-7.957 28.907L390.988 312.75l32.938 145.086c2.414 10.668-1.727 21.7-10.578 28.098-8.832 6.398-20.61 6.89-29.91 1.3l-127.446-76.16-127.445 76.203c-4.309 2.559-9.11 3.864-13.953 3.864zm141.398-112.874c4.844 0 9.64 1.3 13.953 3.859l120.278 71.938-31.086-136.942a27.21 27.21 0 0 1 8.62-26.516l105.473-92.5-139.543-12.671a27.18 27.18 0 0 1-22.613-16.493L255.992 39.895 200.844 168.96c-3.883 9.195-12.524 15.512-22.547 16.43L38.734 198.062l105.47 92.5c7.554 6.614 10.858 16.77 8.62 26.54l-31.062 136.937 120.277-71.914c4.309-2.559 9.11-3.86 13.953-3.86zm-84.586-221.848s0 .023-.023.043zm169.13-.063l.023.043c0-.023 0-.023-.024-.043zm0 0"></path>
  </symbol>
</svg>